# xmcd
# 
# Track frame offsets:
#     180
#     12676
#     25309
#     39019
#     54316
#     67707
#     81824
#     97565
#     111815
#     123935
#     136931
#     147805
#     161788
#     175333
#     189314
#     200873
#     215549
#     229487
# 
# Disc length: 3240
# 
# Revision: 2
# Processed by: cddbd v1.5.2PL0 Copyright (c) Steve Scherf et al.
# Submitted via: fre:ac v1.0.17
# 
DISCID=f00ca612
DTITLE=Women In Blues 1920-1943 - CD2 - Women In Blues 1920-1943
DYEAR=0
DGENRE=Blues
TTITLE0=Memphis Minnie - Me And My Chauffeur Blues
TTITLE1=Lucille Bogan - Reckless Woman
TTITLE2=Lil Johnson - That Bonus Done Gone Thru
TTITLE3=Alice Moore - My Man Blues
TTITLE4=Hattie McDaniel - I Thought I'd Do It
TTITLE5=Victoria Spivey - Dirty tee Bee Blues
TTITLE6=Mildred Bailey - Down Hearted Blues
TTITLE7=Ida Cox - Death Letter Blues
TTITLE8=Georgia White - The Blues Ain't Nothin But
TTITLE9=Merline Johnson - Pallet On The Floor
TTITLE10=Rosetta Howard - How Long Daddy
TTITLE11=Billie Holiday - Long Gone Blues
TTITLE12=Lil Green - Why Don't You Do Right
TTITLE13=Tiny Mayberry - Mailman Blues
TTITLE14=Rosetta Tharpe - Trouble In My Mind
TTITLE15=Wee Bea Booze - Uncle Sam Come And Get Him
TTITLE16=Helen Humes - Gonna Buy Me A Telephone
TTITLE17=Dinah Washington - Salty Papa Blues
EXTD=Frémeaux et Associés\nFA018
EXTT0=
EXTT1=
EXTT2=
EXTT3=
EXTT4=
EXTT5=
EXTT6=
EXTT7=
EXTT8=
EXTT9=
EXTT10=
EXTT11=
EXTT12=
EXTT13=
EXTT14=
EXTT15=
EXTT16=
EXTT17=
PLAYORDER=
